<?xml version="1.0" encoding="UTF-8"?>
<svg id="Layer_2" data-name="Layer 2" xmlns="http://www.w3.org/2000/svg" viewBox="0 0 452.06 209.1">
  <g id="Layer_1-2" data-name="Layer 1">
    <g>
      <path d="M256.1,89.4h11.69c7.58,0,13.11,2.74,13.11,10.55s-5.53,11.06-13.11,11.06h-6.84v15.79h-4.85v-37.4Zm11,17.73c5.81,0,9.01-2.39,9.01-7.18s-3.19-6.67-9.01-6.67h-6.16v13.85h6.16Zm3.48,.06l11.4,19.61h-5.42l-9.75-17.1,3.76-2.51Z" style="fill: #66c5e2; stroke: #66c5e2; stroke-miterlimit: 10; stroke-width: 2px;"/>
      <path d="M288.54,112.89c0-9.01,6.73-14.48,14.14-14.48,7.98,0,12.66,5.19,12.66,13,0,1.08-.11,2.11-.23,2.85h-23.43v-3.65h20.64l-1.2,1.31c0-6.56-3.25-9.81-8.32-9.81s-9.58,3.88-9.58,10.77,4.67,10.83,10.83,10.83c3.31,0,5.93-1.03,8.44-2.62l1.71,3.08c-2.74,1.82-6.27,3.31-10.72,3.31-8.32,0-14.94-5.36-14.94-14.59Z" style="fill: #66c5e2; stroke: #66c5e2; stroke-miterlimit: 10; stroke-width: 2px;"/>
      <path d="M323.42,119.62c0-6.21,5.82-9.24,20.12-10.38-.17-3.76-2-6.95-7.35-6.95-3.59,0-7.13,1.71-9.69,3.31l-1.88-3.19c2.85-1.82,7.53-3.99,12.37-3.99,7.58,0,11.29,4.5,11.29,11.4v16.99h-3.93l-.4-3.76h-.17c-3.02,2.39-7.01,4.45-10.89,4.45-5.19,0-9.46-2.91-9.46-7.87Zm20.12-.06v-7.18c-11.86,.91-15.45,3.25-15.45,6.9,0,3.14,2.85,4.39,6.04,4.39s6.21-1.48,9.41-4.1Z" style="fill: #66c5e2; stroke: #66c5e2; stroke-miterlimit: 10; stroke-width: 2px;"/>
      <path d="M357.62,113c0-9.29,7.07-14.59,15.45-14.59,4.5,0,7.81,1.82,10.09,4.05l-2.34,3.02c-2.28-1.94-4.67-3.14-7.58-3.14-6.38,0-10.77,4.28-10.77,10.66s4.33,10.55,10.66,10.55c3.42,0,6.27-1.54,8.55-3.48l2.11,3.08c-3.08,2.74-6.9,4.33-11,4.33-8.67,0-15.16-5.3-15.16-14.48Z" style="fill: #66c5e2; stroke: #66c5e2; stroke-miterlimit: 10; stroke-width: 2px;"/>
      <path d="M399,116.02v-13.11h-7.87v-3.53l8.04-.28,.63-8.89h3.93v8.89h13.57v3.82h-13.57v13.17c0,4.96,1.65,7.52,7.01,7.52,2.57,0,4.62-.51,6.61-1.25l1.03,3.48c-2.51,.91-5.19,1.65-8.67,1.65-8.09,0-10.72-4.62-10.72-11.46Z" style="fill: #66c5e2; stroke: #66c5e2; stroke-miterlimit: 10; stroke-width: 2px;"/>
    </g>
    <ellipse cx="116.53" cy="104.73" rx="42.65" ry="112.64" transform="translate(-36.75 72.3) rotate(-30)" style="fill: none; stroke: #66c5e2; stroke-miterlimit: 10; stroke-width: 9px;"/>
    <ellipse cx="117.14" cy="104.38" rx="112.64" ry="42.65" style="fill: none; stroke: #66c5e2; stroke-miterlimit: 10; stroke-width: 9px;"/>
    <ellipse cx="117.14" cy="104.38" rx="112.64" ry="42.65" transform="translate(-31.82 153.64) rotate(-60)" style="fill: none; stroke: #66c5e2; stroke-miterlimit: 10; stroke-width: 9px;"/>
    <circle cx="116.72" cy="104.62" r="18.4" style="fill: #66c5e2; stroke: #66c5e2; stroke-miterlimit: 10; stroke-width: 2px;"/>
  </g>
</svg>